<?xml version="1.0" standalone="no"?><!DOCTYPE svg PUBLIC "-//W3C//DTD SVG 1.1//EN" "http://www.w3.org/Graphics/SVG/1.1/DTD/svg11.dtd"><svg t="1775667692690" class="icon" viewBox="0 0 1024 1024" version="1.1" xmlns="http://www.w3.org/2000/svg" p-id="21169" xmlns:xlink="http://www.w3.org/1999/xlink" width="200" height="200"><path d="M170.325333 343.04A170.496 170.496 0 0 1 0 172.373333c0-94.250667 76.245333-170.666667 170.325333-170.666666a170.496 170.496 0 0 1 170.325334 170.666666c0 94.293333-76.245333 170.666667-170.325334 170.666667zM513.024 170.666667a85.248 85.248 0 0 1-85.162667-85.333334c0-47.146667 38.101333-85.333333 85.162667-85.333333 47.018667 0 85.162667 38.186667 85.162667 85.333333s-38.144 85.333333-85.162667 85.333334z m212.906667 42.666666a85.248 85.248 0 0 1-85.162667-85.333333c0-47.146667 38.144-85.333333 85.162667-85.333333 47.018667 0 85.162667 38.186667 85.162666 85.333333s-38.144 85.333333-85.162666 85.333333z m212.906666 128a85.248 85.248 0 0 1-85.162666-85.333333c0-47.146667 38.144-85.333333 85.162666-85.333333C985.856 170.666667 1024 208.853333 1024 256s-38.144 85.333333-85.162667 85.333333z m-442.88 373.333334c-69.376-169.386667-195.84-72.832-195.84-229.333334C300.117333 328.789333 393.770667 256 535.722667 256c141.952 0 360.533333 34.133333 360.533333 383.829333 0 310.101333-217.685333 422.485333-310.869333 372.906667-183.082667-97.450667-55.338667-214.997333-89.386667-298.112z" fill="#D8D8D8" p-id="21170"></path></svg>