<?xml version="1.0" standalone="no"?><!DOCTYPE svg PUBLIC "-//W3C//DTD SVG 1.1//EN" "http://www.w3.org/Graphics/SVG/1.1/DTD/svg11.dtd"><svg t="1775667591612" class="icon" viewBox="0 0 1024 1024" version="1.1" xmlns="http://www.w3.org/2000/svg" p-id="17639" xmlns:xlink="http://www.w3.org/1999/xlink" width="200" height="200"><path d="M247.2256 405.41312S104.4096 176.92928 128.2176 167.42016c23.77728-9.50784 41.55136-4.93184 90.4448 33.312 109.4976 85.69984 128.54912 190.3872 28.5632 204.68096z" fill="#D6F2FC" p-id="17640"></path><path d="M291.75296 394.9504s-18.78528-268.74624 6.65728-266.01344c25.50144 2.79424 39.02592 15.18464 64.2304 71.91168 56.50176 127.0336 24.16384 228.42368-70.88768 194.10176z" fill="#D6F2FC" p-id="17641"></path><path d="M147.23968 224.56448l23.83744 42.7904s23.808-38.0352-23.83744-42.7904zM283.24608 181.92l-6.30144 48.6144s41.79072-16.52096 6.30144-48.6144zM198.33216 454.05952c7.0144 22.5536 0.56448 44.6912-14.50496 49.38624-15.09888 4.69504-32.992-9.83552-40.0064-32.44928-7.04384-22.5536-0.56448-44.69248 14.50496-49.3568 15.09888-4.6656 32.992 9.83552 40.0064 32.41984zM244.1152 573.68832s-8.94592-81.89568 2.37824-63.65056c11.32416 18.304 22.4704 154.1632 6.71744 150.74688-15.69408-3.38816-9.09568-87.09632-9.09568-87.09632z" fill="#733E3C" p-id="17642"></path><path d="M251.43168 646.848s-88.63232 47.48544-104.32512 52.80384c-15.63392 5.31968-52.31104-8.4096-52.31104-8.4096s33.28896 29.41824 48.92288 24.09984c15.63392-5.31968 109.49632-54.55744 109.49632-54.55744l-1.78304-13.93664zM201.13152 555.44576s25.44256-64.03712 26.66112-46.1184c1.18784 17.91872-43.69152 122.69568-54.00576 114.01856-10.25408-8.67712 27.34464-67.90016 27.34464-67.90016z" fill="#733E3C" p-id="17643"></path><path d="M177.92512 612.34944s-84.11392 0.44672-97.7856-1.75232C66.52672 608.36864 44.8 583.88224 44.8 583.88224s13.04832 34.76736 26.72 36.9664c13.64352 2.1696 102.24512 2.496 102.24512 2.496l4.16-10.9952zM284.45824 567.5392s-50.08128-65.40416-30.9696-55.65696c19.14112 9.74592 99.1232 120.16896 83.96544 125.39904-15.18848 5.20064-52.99584-69.74208-52.99584-69.74208z" fill="#733E3C" p-id="17644"></path><path d="M328.6336 626.28608s-51.15136 86.56128-61.792 99.2192c-10.6112 12.6592-49.10208 19.93984-49.10208 19.93984s43.72224 7.904 54.36288-4.72448c10.64064-12.68864 65.32992-103.44064 65.32992-103.44064l-8.79872-10.99392z" fill="#733E3C" p-id="17645"></path><path d="M294.0736 550.63552s-66.0416-49.32864-44.96896-45.16864c21.10336 4.19072 128.16256 88.5824 114.96576 97.76512-13.16736 9.21088-69.9968-52.59648-69.9968-52.59648z" fill="#B26A58" p-id="17646"></path><path d="M352.61184 595.0848s-25.59104 97.2288-32.3968 112.35328c-6.7776 15.0656-41.82016 32.50944-41.82016 32.50944s44.25728-4.27904 51.0336-19.37408c6.77632-15.03616 34.656-117.34656 34.656-117.34656l-11.47264-8.14208zM251.37792 569.58848s-29.4848-62.1952-15.54432-50.93248c13.9392 11.35104 60.0384 115.6224 46.66368 117.22752-13.31584 1.63456-31.11936-66.29504-31.11936-66.29504z" fill="#B26A58" p-id="17647"></path><path d="M277.26336 625.36704s-56.94848 61.80736-67.88608 70.336c-10.87872 8.43904-43.63264 7.6672-43.63264 7.6672s34.35904 14.144 45.2672 5.67552c10.9376-8.46976 71.51232-73.15968 71.51232-73.15968l-5.2608-10.51904zM317.05984 516.90752s-82.06336-7.9936-61.85216-15.30368c20.2112-7.33952 155.5072 9.32992 149.02784 24.01024-6.5088 14.6496-87.17568-8.70656-87.17568-8.70656z" fill="#B26A58" p-id="17648"></path><path d="M390.21056 524.5696s28.53248 96.42624 30.5536 112.76928c2.05184 16.43264-18.93248 49.56672-18.93248 49.56672s35.63648-26.62528 33.61536-43.05792c-2.02112-16.37376-31.20768-118.23872-31.20768-118.23872l-14.0288-1.03936z" fill="#B26A58" p-id="17649"></path><path d="M423.34976 405.41312s-14.26688 0-14.26688 28.58624c0 28.52736-19.05152 33.28128 23.77856 28.52736 42.85952-4.7552 234.06336-36.78848 309.4976-47.60448 99.95648-14.26432 257.03936-14.26304 233.23136-38.09536-23.808-23.77216-38.0736-57.08416-171.34848-23.77216-84.29312 21.09824-380.89216 52.3584-380.89216 52.3584z" fill="#D34D2A" p-id="17650"></path><path d="M975.60832 376.8256c-4.99328-4.96256-9.63072-10.4-14.98112-15.51104-56.41216 20.29568-465.86624 86.91712-537.25952 67.9296l-3.44832 34.58816c3.50848-0.29696 7.78752-0.7424 12.95872-1.30688 42.85952-4.7552 234.06336-36.78848 309.49888-47.60448 87.47264-12.48 218.7264-14.02624 234.15296-30.2208l0.77184-4.992-1.69344-2.88256z" fill="#BF3E2E" p-id="17651"></path><path d="M251.97952 400.6592s-76.17792 47.57376-52.3712 76.16c23.808 28.5568 23.808 57.1136 85.72032 47.60448 43.36384-6.68544 137.82144-50.39744 147.54048-61.89696 52.3712-61.86752-133.2736-99.93344-180.8896-61.86752z" fill="#D34D2A" p-id="17652"></path><path d="M149.58976 440.02688c-13.88032 5.85472-45.1776 36.78848-26.18496 65.34528 33.43744 50.10048 97.69728 43.1168 106.28608 9.89568 8.61952-33.2224-20.56704-100.34944-80.10112-75.24096z" fill="#D34D2A" p-id="17653"></path><path d="M169.73568 492.15104c7.0144 22.5536 0.5056 44.66304-14.50496 49.38752-15.09888 4.63488-33.02144-9.89568-40.03584-32.44928-7.04384-22.61376-0.56448-44.69248 14.5344-49.35808 15.06944-4.69504 32.992 9.83552 40.0064 32.41984z" fill="#733E3C" p-id="17654"></path><path d="M280.47616 447.28064s-31.95008 431.26144 17.62688 445.19808c64.1408 18.15552 110.95296-77.46816 95.02208-161.11744-49.87392-261.67552-88.75136-340.2432-112.64896-284.08064z" fill="#D6F2FC" p-id="17655"></path><path d="M294.7456 430.90816s158.12224 402.43712 208.8576 393.61152c65.6576-11.47008 66.42944-117.8816 15.81312-186.34624C361.02656 423.8656 314.92608 408.05632 294.7456 430.90816z" fill="#D6F2FC" p-id="17656"></path><path d="M271.05536 757.62816v71.40736s47.61472-42.85056 0-71.40736zM418.63936 705.30176l33.31968 57.1136s19.05152-52.38912-33.31968-57.1136z" fill="#733E3C" p-id="17657"></path></svg>