<?xml version="1.0" standalone="no"?><!DOCTYPE svg PUBLIC "-//W3C//DTD SVG 1.1//EN" "http://www.w3.org/Graphics/SVG/1.1/DTD/svg11.dtd"><svg t="1775667538041" class="icon" viewBox="0 0 1024 1024" version="1.1" xmlns="http://www.w3.org/2000/svg" p-id="15592" xmlns:xlink="http://www.w3.org/1999/xlink" width="200" height="200"><path d="M977.646268 564.414569c10.075205-40.24508-1.045146-73.647938-1.045145-73.647938s17.237937-54.263968-1.825522-71.181395c-8.653807-7.678338 23.689971-57.62237-66.736041-89.088225-6.298745-40.022115-45.094556-63.210416-90.272723-74.846372 19.815964-45.28965-19.509388-109.391923-100.487282-102.521832 10.507199-67.265581-65.718766-75.250495-95.205811-76.407123s-40.704944-42.809171-61.886565-35.953014-107.301632-4.180583-107.301632-4.180583-44.077281-49.30301-70.860883-33.444665c-10.535069 7.511114-56.38213 36.524361-78.03755 40.412303-12.360591 2.201774-40.412303-26.477026-52.229418 10.56294-4.710124 14.827135-24.456411-11.844985-55.253373 28.609123-46.529889 61.259477 242.780394 321.542579 152.647023 545.426737 0 0-303.524266 357.049664-321.570449 353.956033s-5.142117 41.805831-5.142117 41.80583S48.623165 1018.704595 57.179425 991.586546c26.212256-56.841994 318.713717-354.680667 319.11784-354.806084 62.875969-9.894047 140.481526 29.94691 439.421086 283.527143 16.722332 14.158241 76.644023 40.663138 87.541409-2.048486 6.967638-26.477026 40.314756-101.239786 21.571809-153.357722-0.013935 0 139.422445-37.165383 52.814699-200.486828z" fill="#F4A300" p-id="15593"></path></svg>