<?xml version="1.0" standalone="no"?><!DOCTYPE svg PUBLIC "-//W3C//DTD SVG 1.1//EN" "http://www.w3.org/Graphics/SVG/1.1/DTD/svg11.dtd"><svg t="1775667633151" class="icon" viewBox="0 0 1024 1024" version="1.1" xmlns="http://www.w3.org/2000/svg" p-id="18870" xmlns:xlink="http://www.w3.org/1999/xlink" width="200" height="200"><path d="M512 512m-512 0a512 512 0 1 0 1024 0 512 512 0 1 0-1024 0Z" fill="#FFFBEB" p-id="18871"></path><path d="M512 512m-384 0a384 384 0 1 0 768 0 384 384 0 1 0-768 0Z" fill="#FFF7D4" p-id="18872"></path><path d="M512 512m-286.117647 0a286.117647 286.117647 0 1 0 572.235294 0 286.117647 286.117647 0 1 0-572.235294 0Z" fill="#FFF1B8" p-id="18873"></path><path d="M788.329412 298.465882a12.724706 12.724706 0 1 0-1.204706-12.649411 12.724706 12.724706 0 0 0 1.204706 12.649411z m0 0M727.943529 218.352941l-10.089411 4.969412-4.969412-10.089412a5.496471 5.496471 0 0 0-9.788235 4.894118l4.668235 10.089412-9.788235 5.195294a5.496471 5.496471 0 1 0 4.894117 9.788235l10.089412-4.969412 4.969412 10.089412a5.496471 5.496471 0 0 0 9.788235-4.894118L722.823529 233.411765l10.089412-4.969412a5.496471 5.496471 0 0 0 2.484706-7.529412 5.421176 5.421176 0 0 0-7.529412-2.409412zM873.788235 330.164706l-10.089411 4.969412-4.969412-10.089412a5.496471 5.496471 0 0 0-9.788236 4.894118l4.969412 10.089411-10.089412 4.969412a5.496471 5.496471 0 1 0 4.894118 9.788235l10.089412-4.969411 4.969412 10.089411a5.496471 5.496471 0 1 0 9.788235-4.894117l-4.969412-10.089412 10.089412-4.969412a5.496471 5.496471 0 1 0-4.894118-9.788235z" fill="#F7E42F" p-id="18874"></path><path d="M804.442353 229.647059a25.750588 25.750588 0 1 1 11.670588-34.484706 25.750588 25.750588 0 0 1-11.670588 34.484706z m-17.242353-34.785883a13.025882 13.025882 0 1 0 17.468235 5.872942 13.025882 13.025882 0 0 0-17.468235-5.872942z m0 0" fill="#F8B62D" p-id="18875"></path><path d="M271.510588 308.705882a12.724706 12.724706 0 1 0 9.788236-8.05647 12.724706 12.724706 0 0 0-9.788236 8.05647z m0 0M281.750588 246.287059l-9.788235-5.345883 5.496471-9.788235a5.496471 5.496471 0 0 0-9.487059-5.270588l-5.496471 9.788235-9.788235-5.49647a5.496471 5.496471 0 1 0-5.421177 9.562353l9.788236 5.49647-5.496471 9.788235a5.496471 5.496471 0 0 0 9.562353 5.421177l5.571765-9.863529 9.788235 5.49647a5.496471 5.496471 0 0 0 7.529412-2.108235 5.421176 5.421176 0 0 0-2.108236-7.529412z" fill="#F7E42F" p-id="18876"></path><path d="M318.192941 233.411765a25.750588 25.750588 0 1 1 35.087059-9.712941A25.750588 25.750588 0 0 1 318.192941 233.411765z m19.124706-33.807059a13.025882 13.025882 0 1 0 4.969412 17.769412 13.025882 13.025882 0 0 0-4.969412-17.769412z m0 0" fill="#F8B62D" p-id="18877"></path><path d="M199.529412 360.131765a3.463529 3.463529 0 0 0-4.668236 1.505882 3.538824 3.538824 0 0 0 1.505883 4.668235l14.08 7.529412a3.538824 3.538824 0 0 0 4.668235-1.505882 3.463529 3.463529 0 0 0-1.505882-4.668236z m37.647059 19.350588a3.538824 3.538824 0 0 0-4.668236 1.505882 3.463529 3.463529 0 0 0 1.505883 4.668236l14.08 7.529411a3.463529 3.463529 0 0 0 3.162353-6.174117z m-6.174118-11.143529a3.538824 3.538824 0 0 0 2.032941-1.731765l7.529412-14.08a3.538824 3.538824 0 0 0-1.505882-4.668235 3.463529 3.463529 0 0 0-4.668236 1.505882l-7.529412 14.08a3.463529 3.463529 0 0 0 1.505883 4.668235 3.538824 3.538824 0 0 0 2.635294 0z m-16.414118 18.221176l-7.529411 14.08a3.463529 3.463529 0 0 0 6.174117 3.162353l7.529412-14.08a3.463529 3.463529 0 0 0-6.174118-3.162353z m0-7.077647a3.463529 3.463529 0 0 0-4.367059-2.258824l-15.058823 4.818824a3.463529 3.463529 0 0 0 2.108235 6.625882l15.058824-4.818823a3.463529 3.463529 0 0 0 2.334117-4.367059z m35.538824-15.058824l-15.058824 4.818824a3.463529 3.463529 0 0 0 2.108236 6.625882l15.058823-4.818823a3.463529 3.463529 0 0 0-2.108235-6.625883z m-36.367059-18.823529a3.463529 3.463529 0 0 0-2.258824 4.367059l4.818824 15.058823a3.463529 3.463529 0 0 0 6.625882-2.108235l-4.818823-15.058823a3.463529 3.463529 0 0 0-4.367059-2.258824z m12.8 39.981176a3.463529 3.463529 0 0 0-2.258824 4.367059l4.818824 15.058824a3.463529 3.463529 0 1 0 6.625882-2.108235l-4.818823-15.058824a3.388235 3.388235 0 0 0-4.367059-2.258824z m0 0" fill="#FAEE00" p-id="18878"></path><path d="M499.576471 691.501176H542.117647a13.552941 13.552941 0 0 1 13.552941 13.552942v72.05647A36.065882 36.065882 0 0 1 519.529412 813.176471a36.065882 36.065882 0 0 1-36.065883-36.065883V707.764706a16.188235 16.188235 0 0 1 16.188236-16.188235z" fill="#EFB126" p-id="18879"></path><path d="M499.576471 691.501176H542.117647a13.552941 13.552941 0 0 1 13.552941 13.552942v72.05647A36.065882 36.065882 0 0 1 519.529412 813.176471a36.065882 36.065882 0 0 1-36.065883-36.065883V707.764706a16.188235 16.188235 0 0 1 16.188236-16.188235z" fill="#EFB126" p-id="18880"></path><path d="M542.117647 691.501176h-9.487059v67.237648a35.689412 35.689412 0 0 1-36.065882 35.237647 36.818824 36.818824 0 0 1-9.938824-1.355295A36.065882 36.065882 0 0 0 519.529412 813.176471a35.689412 35.689412 0 0 0 36.065882-35.237647V704.752941A13.402353 13.402353 0 0 0 542.117647 691.501176z" fill="#DC9D60" p-id="18881"></path><path d="M519.529412 821.835294a44.724706 44.724706 0 0 1-44.724706-44.724706V707.764706a24.847059 24.847059 0 0 1 24.847059-24.847059H542.117647a22.588235 22.588235 0 0 1 22.136471 22.136471v72.05647a44.724706 44.724706 0 0 1-44.724706 44.724706zM499.576471 700.235294a7.529412 7.529412 0 0 0-7.529412 7.529412v69.421176a27.407059 27.407059 0 0 0 54.889412 0v-72.131764A4.894118 4.894118 0 0 0 542.117647 700.235294z" fill="#5F3424" p-id="18882"></path><path d="M365.477647 225.882353m85.76 0l136.734118 0q85.76 0 85.76 85.76l0 307.2q0 85.76-85.76 85.76l-136.734118 0q-85.76 0-85.76-85.76l0-307.2q0-85.76 85.76-85.76Z" fill="#FFFFFF" p-id="18883"></path><path d="M599.04 225.882353h-158.870588a74.691765 74.691765 0 0 0-74.691765 74.691765v329.33647a74.691765 74.691765 0 0 0 74.691765 74.691765h158.870588a74.691765 74.691765 0 0 0 74.691765-74.691765V300.574118A74.691765 74.691765 0 0 0 599.04 225.882353z m55.04 373.458823a74.691765 74.691765 0 0 1-74.691765 74.691765H459.896471a74.691765 74.691765 0 0 1-74.691765-74.691765V331.294118a74.691765 74.691765 0 0 1 74.691765-74.691765h119.41647A74.691765 74.691765 0 0 1 654.08 331.294118z" fill="#F2F2F2" p-id="18884"></path><path d="M575.322353 402.974118h-2.258824a26.051765 26.051765 0 0 1 8.809412 19.425882v170.691765a26.202353 26.202353 0 0 1-23.943529 25.97647 26.051765 26.051765 0 0 0 17.392941 6.776471 26.277647 26.277647 0 0 0 26.202353-26.202353V429.176471a26.277647 26.277647 0 0 0-26.202353-26.202353z" fill="#F2F2F2" p-id="18885"></path><path d="M575.322353 634.503529a34.861176 34.861176 0 0 1-34.861177-34.861176V429.176471A34.861176 34.861176 0 0 1 609.882353 429.176471v170.541176a34.861176 34.861176 0 0 1-34.56 34.785882z m0-222.945882A17.618824 17.618824 0 0 0 557.778824 429.176471v170.541176a17.618824 17.618824 0 0 0 35.237647 0V429.176471a17.618824 17.618824 0 0 0-17.694118-17.618824z" fill="#5F3424" p-id="18886"></path><path d="M470.437647 402.974118h-2.258823a26.051765 26.051765 0 0 1 8.809411 19.425882v170.691765a26.202353 26.202353 0 0 1-23.943529 25.97647 26.051765 26.051765 0 0 0 17.392941 6.776471A26.277647 26.277647 0 0 0 496.941176 599.717647V429.176471a26.277647 26.277647 0 0 0-26.503529-26.202353z" fill="#F2F2F2" p-id="18887"></path><path d="M470.437647 634.503529a34.861176 34.861176 0 0 1-34.861176-34.861176V429.176471a34.861176 34.861176 0 0 1 69.722353 0v170.541176a34.861176 34.861176 0 0 1-34.861177 34.785882z m0-222.945882A17.618824 17.618824 0 0 0 452.818824 429.176471v170.541176a17.618824 17.618824 0 0 0 35.237647 0V429.176471a17.618824 17.618824 0 0 0-17.618824-17.618824z" fill="#5F3424" p-id="18888"></path><path d="M673.731765 527.058824a8.658824 8.658824 0 0 1-8.658824-8.658824V311.642353a77.251765 77.251765 0 0 0-77.101176-77.101177H451.237647a77.251765 77.251765 0 0 0-77.101176 77.101177v149.534118a8.658824 8.658824 0 0 1-17.242353 0V311.642353a94.494118 94.494118 0 0 1 94.343529-94.418824h136.734118a94.494118 94.494118 0 0 1 94.343529 94.418824v206.983529A8.658824 8.658824 0 0 1 673.731765 527.058824z" fill="#5F3424" p-id="18889"></path><path d="M365.477647 484.894118a8.658824 8.658824 0 0 1-8.658823-8.658824v-15.058823a8.658824 8.658824 0 0 1 17.242352 0v15.058823a8.658824 8.658824 0 0 1-8.583529 8.658824zM365.477647 520.658824A8.658824 8.658824 0 0 1 356.894118 512v-16.414118a8.658824 8.658824 0 0 1 17.242353 0V512a8.658824 8.658824 0 0 1-8.658824 8.658824zM587.971765 713.261176H451.237647A94.494118 94.494118 0 0 1 356.894118 618.842353V534.588235a8.658824 8.658824 0 0 1 17.242353 0v84.254118a77.251765 77.251765 0 0 0 77.101176 77.176471h136.734118a77.251765 77.251765 0 0 0 77.101176-77.176471 8.658824 8.658824 0 0 1 17.242353 0 94.494118 94.494118 0 0 1-94.343529 94.418823zM673.731765 597.835294a8.658824 8.658824 0 0 1-8.658824-8.658823v-12.197647a8.658824 8.658824 0 0 1 17.242353 0v12.272941a8.658824 8.658824 0 0 1-8.583529 8.583529z" fill="#5F3424" p-id="18890"></path><path d="M673.731765 585.562353a8.658824 8.658824 0 0 1-8.658824-8.658824V560.941176a8.658824 8.658824 0 0 1 17.242353 0v16.037648a8.658824 8.658824 0 0 1-8.583529 8.583529zM673.731765 543.247059A8.658824 8.658824 0 0 1 665.072941 534.588235v-15.962353a8.658824 8.658824 0 0 1 17.242353 0V534.588235a8.658824 8.658824 0 0 1-8.583529 8.658824zM672.075294 284.912941a74.691765 74.691765 0 0 0-73.035294-59.030588h-158.870588a74.691765 74.691765 0 0 0-73.035294 59.030588h-1.656471v131.162353s39.68 6.550588 39.68 45.929412 45.929412 45.929412 39.378824 0 52.705882-39.378824 52.705882-6.550588 39.378824 39.378824 45.929412 6.550588 45.929412-39.378824 52.705882 0 52.705882 52.705882 52.705882-6.550588 26.202353 9.863529 26.202353 9.863529v-180.705882z" fill="#5F3424" p-id="18891"></path><path d="M394.917647 429.176471a44.423529 44.423529 0 0 0-29.741176-42.842353v29.741176a54.738824 54.738824 0 0 1 30.117647 17.392941c-0.225882-1.430588-0.376471-2.785882-0.376471-4.291764zM672.075294 284.912941a74.164706 74.164706 0 0 0-8.282353-21.383529v168.96s-26.202353-68.894118-26.202353-9.86353-45.929412 45.929412-52.705882 6.550589-45.929412-32.752941-52.705882 0-45.929412 26.202353-45.929412-6.550589-59.030588-39.378824-52.705883 6.550589c4.592941 32.376471-16.865882 38.550588-30.117647 25.6a53.232941 53.232941 0 0 1 0.451765 7.529411c0 39.378824 45.929412 45.929412 39.378824 0s52.705882-39.378824 52.705882-6.550588 39.378824 39.378824 45.929412 6.550588 45.929412-39.378824 52.705882 0 52.705882 52.705882 52.705882-6.550588 26.202353 9.863529 26.202353 9.86353v-180.705883z" fill="#491F15" p-id="18892"></path></svg>