<?xml version="1.0" standalone="no"?><!DOCTYPE svg PUBLIC "-//W3C//DTD SVG 1.1//EN" "http://www.w3.org/Graphics/SVG/1.1/DTD/svg11.dtd"><svg height="2667" node-id="1" sillyvg="true" template-height="2667" template-width="2001" version="1.1" viewBox="0 0 2001 2667" width="2001" xmlns="http://www.w3.org/2000/svg" xmlns:xlink="http://www.w3.org/1999/xlink"><defs node-id="83"><clipPath id="clip0_88_255" node-id="80"><path d="M 0.00 0.00 L 2000.25 0.00 L 2000.25 2667.00 L 0.00 2667.00 Z" fill="#000000" fill-rule="nonzero" node-id="86" stroke="none" target-height="2667" target-width="2000.25" target-x="0" target-y="0"></path></clipPath></defs><g clip-path="url(#clip0_88_255)" id="sillyvg_g_0" node-id="90"><path d="M 0.00 0.00 L 2000.25 0.00 L 2000.25 2667.00 L 0.00 2667.00 Z" fill="#e8cdbd" fill-rule="nonzero" node-id="92" stroke="none" target-height="2667" target-width="2000.25" target-x="0" target-y="0"></path><path d="M 62.97 400.05 L 229.66 400.05 L 229.66 564.88 L 62.97 564.88 Z" fill="#e1ab01" fill-rule="nonzero" node-id="94" stroke="none" target-height="164.83505" target-width="166.68802" target-x="62.9712" target-y="400.04996"></path><path d="M 2215.10 1771.52 C 2215.10 2084.17 2098.41 2384.02 1890.71 2605.09 C 1683.00 2826.17 1401.29 2950.37 1107.55 2950.37 C 813.81 2950.37 532.10 2826.17 324.39 2605.09 C 116.69 2384.02 -0.00 2084.17 0.00 1771.52 C 0.00 1458.87 116.69 1159.02 324.39 937.95 C 532.10 716.87 813.81 592.67 1107.55 592.67 C 1401.29 592.67 1683.00 716.87 1890.71 937.95 C 2098.41 1159.02 2215.10 1458.87 2215.10 1771.52 Z" fill="#e1ab01" fill-rule="nonzero" node-id="96" stroke="none" target-height="2357.7002" target-width="2215.1" target-x="-0.00003042" target-y="592.67004"></path><path d="M 925.12 2256.76 L 925.12 2276.21 L 925.12 2391.04 L 1177.93 2230.83 L 1342.76 2139.16 L 1227.01 2675.33 L 682.49 2675.33 L 682.49 2591.06 L 851.96 2329.92 L 925.12 2256.76 Z" fill="#d6a1b1" fill-rule="nonzero" node-id="98" stroke="none" target-height="536.17017" target-width="660.267" target-x="682.493" target-y="2139.16"></path><path d="M 2117.86 2191.01 L 1715.96 2007.66 L 1560.38 2007.66 L 1379.80 2148.42 L 1293.68 2699.41 L 2086.37 2714.23 L 2117.86 2191.01 Z" fill="#d22b19" fill-rule="nonzero" node-id="100" stroke="none" target-height="706.57007" target-width="824.18005" target-x="1293.68" target-y="2007.6599"></path><path d="M 1640.95 1960.43 C 1623.81 1946.22 1589.09 1894.68 1589.09 1894.68 C 1589.09 1894.68 1446.48 1995.62 1381.65 2072.48 C 1328.43 2135.59 1299.58 2173.44 1263.12 2247.50 C 1221.49 2332.07 1191.82 2478.09 1191.82 2478.09 L 1452.03 2194.72 L 1432.59 2161.38 C 1432.59 2161.38 1504.73 2082.26 1564.08 2051.18 C 1624.16 2019.73 1728.92 2013.21 1728.92 2013.21 C 1728.92 2013.21 1671.45 1985.72 1640.95 1960.43 Z" fill="#cd395d" fill-rule="nonzero" node-id="102" stroke="none" target-height="583.41003" target-width="537.1002" target-x="1191.82" target-y="1894.68"></path><path d="M 359.66 1211.03 C 309.16 1203.78 258.65 1196.52 208.15 1189.27 C 208.42 1196.20 208.63 1202.78 208.70 1209.50 C 209.26 1268.89 200.92 1330.45 169.28 1362.00 C 138.87 1396.65 63.40 1382.09 5.79 1349.78 C -0.96 1346.19 -7.31 1342.69 -14.02 1338.69 C -14.55 1339.32 -15.08 1339.95 -15.61 1340.58 C -10.49 1346.52 -5.64 1352.03 -0.29 1357.72 C 44.82 1404.16 113.57 1465.48 207.83 1429.54 C 294.61 1388.51 326.45 1304.99 351.94 1235.24 C 354.67 1227.17 357.20 1219.31 359.66 1211.03 Z" fill="#d22b19" fill-rule="nonzero" node-id="104" stroke="none" target-height="276.20996" target-width="375.2686" target-x="-15.610601" target-y="1189.27"></path><path d="M 307.81 1283.15 C 297.69 1274.72 287.57 1266.30 277.45 1257.87 C 273.41 1262.24 269.51 1266.57 265.72 1270.91 C 229.89 1313.01 195.41 1360.48 186.21 1423.13 C 174.85 1481.50 224.44 1541.14 274.49 1548.68 C 280.38 1550.11 286.16 1551.09 292.15 1551.85 C 292.47 1551.09 292.79 1550.34 293.11 1549.58 C 288.47 1545.82 284.19 1542.09 279.96 1538.22 C 242.67 1504.99 229.35 1468.48 235.21 1429.24 C 241.26 1384.38 268.38 1338.79 298.12 1296.51 C 301.24 1292.11 304.45 1287.67 307.81 1283.15 Z" fill="#d22b19" fill-rule="nonzero" node-id="106" stroke="none" target-height="293.9801" target-width="132.96202" target-x="174.846" target-y="1257.87"></path><path d="M 478.74 402.79 C 478.14 402.92 477.54 403.05 476.93 403.18 C 476.24 408.84 475.74 414.21 475.59 419.77 C 474.99 446.90 481.55 476.99 504.57 501.19 C 527.22 525.77 566.00 535.46 597.39 528.92 C 650.94 518.47 688.40 475.19 697.25 428.86 C 698.31 423.22 698.93 417.53 699.08 411.91 C 698.52 411.65 697.96 411.39 697.39 411.13 C 693.25 414.85 689.06 418.30 684.87 421.50 C 650.30 447.24 615.73 461.11 585.95 467.00 C 551.77 474.41 518.42 461.04 487.73 416.20 C 484.69 411.91 481.73 407.60 478.74 402.79 Z" fill="#000000" fill-rule="nonzero" node-id="108" stroke="none" target-height="132.677" target-width="224.08704" target-x="474.99" target-y="402.786"></path><path d="M 563.58 598.91 C 570.89 571.47 578.20 544.03 585.51 516.58 C 579.08 515.59 572.94 514.45 567.08 513.19 C 512.94 501.84 462.85 469.80 457.01 416.31 C 448.42 363.54 503.86 305.65 568.13 323.75 C 575.23 325.37 581.59 327.28 588.55 329.99 C 588.82 329.44 589.10 328.88 589.38 328.33 C 582.96 324.35 576.99 321.07 570.01 318.03 C 509.74 284.50 417.38 335.47 413.49 415.70 C 404.99 497.07 474.90 563.08 540.94 589.89 C 548.16 593.08 555.71 596.09 563.58 598.91 Z" fill="#000000" fill-rule="nonzero" node-id="110" stroke="none" target-height="314.41202" target-width="184.39099" target-x="404.987" target-y="284.499"></path><path d="M 452.17 609.98 C 452.61 609.55 453.06 609.12 453.50 608.69 C 467.69 594.06 474.64 586.60 474.25 586.19 C 471.48 583.31 468.84 580.49 466.14 577.54 C 412.03 518.56 371.69 444.01 389.98 355.55 C 390.97 350.72 392.13 345.91 393.46 341.07 C 392.92 340.79 392.37 340.51 391.82 340.23 C 388.64 344.17 385.62 348.23 382.76 352.47 C 326.60 430.19 354.16 550.87 419.36 619.52 C 422.50 623.08 425.59 626.43 428.85 629.83 C 429.31 630.30 437.12 623.72 452.17 609.98 Z" fill="#000000" fill-rule="nonzero" node-id="112" stroke="none" target-height="290.08" target-width="148.04495" target-x="326.6" target-y="340.225"></path><path d="M 325.97 951.04 C 325.35 951.04 324.73 951.04 324.12 951.04 C 254.35 952.14 219.47 952.88 219.47 953.79 C 219.43 961.41 219.30 968.70 219.10 975.66 C 217.05 1048.74 205.01 1105.27 178.40 1133.11 C 164.69 1148.29 137.08 1159.37 109.60 1156.24 C 96.03 1154.64 84.23 1150.93 76.31 1143.51 C 67.75 1136.47 66.35 1117.18 76.11 1097.79 C 80.52 1088.91 85.27 1080.91 92.18 1072.21 C 91.85 1071.69 91.51 1071.17 91.17 1070.65 C 80.33 1073.56 70.92 1076.36 60.51 1081.76 C 38.76 1092.43 13.38 1116.09 12.49 1153.78 C 11.82 1190.77 33.10 1222.26 57.23 1243.29 C 105.91 1285.40 176.80 1299.79 243.56 1278.56 C 385.23 1228.45 423.39 1084.24 429.56 985.97 C 430.20 975.82 430.55 965.45 430.60 954.85 C 430.61 953.59 395.73 952.14 325.97 951.04 Z" fill="#2b1c5d" fill-rule="nonzero" node-id="114" stroke="none" target-height="348.74506" target-width="418.7891" target-x="11.8179" target-y="951.045"></path><path d="M 234.38 806.00 C 287.67 808.40 323.28 702.28 323.28 702.28 L 394.58 727.28 C 394.58 727.28 430.19 825.66 410.33 883.78 C 391.62 938.55 357.63 959.38 311.24 993.98 C 287.58 1011.63 325.62 1003.40 311.24 1032.88 C 269.71 1117.98 363.10 1188.45 354.76 1278.28 C 349.16 1338.71 264.01 1371.81 264.01 1371.81 C 264.01 1371.81 324.92 1322.70 311.24 1287.54 C 302.58 1265.27 278.75 1267.45 264.01 1248.64 C 232.47 1208.39 239.94 1119.92 239.94 1119.92 C 239.94 1119.92 200.82 1153.94 170.48 1165.30 C 144.71 1174.96 101.03 1177.34 101.03 1177.34 C 101.03 1177.34 142.86 1122.59 151.96 1081.03 C 159.23 1047.82 143.55 1026.92 151.96 993.98 C 159.84 963.11 189.93 921.75 189.93 921.75 C 189.93 921.75 132.38 906.84 101.03 921.75 C 77.24 933.06 59.45 943.47 52.88 968.98 C 46.39 994.14 71.40 1032.88 71.40 1032.88 C 71.40 1032.88 38.90 1013.71 26.95 993.98 C 14.99 974.25 12.41 959.63 13.06 936.57 C 13.94 904.81 23.41 885.28 44.54 861.56 C 66.93 836.43 120.48 820.81 120.48 820.81 C 120.48 820.81 98.79 794.79 95.47 774.51 C 90.66 745.05 102.83 726.35 120.48 702.28 C 139.99 675.66 157.16 658.05 189.93 654.12 C 209.59 651.77 239.94 662.46 239.94 662.46 C 239.94 662.46 155.74 684.77 151.96 727.28 C 148.02 771.61 189.92 803.99 234.38 806.00 Z" fill="#0b52a0" fill-rule="nonzero" node-id="116" stroke="#2a801b" stroke-linecap="butt" stroke-width="1.85208" target-height="720.04205" target-width="417.77563" target-x="12.4114" target-y="651.768"></path><path d="M 413.01 652.86 L 551.92 773.25 L 318.56 1066.80 L 413.01 652.86 Z" fill="#000000" fill-rule="nonzero" node-id="118" stroke="none" target-height="413.94104" target-width="233.36203" target-x="318.559" target-y="652.859"></path><path d="M 701.94 1803.93 C 701.45 1823.61 671.38 1829.86 671.38 1829.86 C 715.83 1852.08 749.05 1856.45 778.80 1806.43 L 666.75 1650.21 L 537.10 1392.77 L 559.33 1398.32 L 519.51 1273.31 C 519.51 1273.31 515.08 1235.23 513.03 1205.71 C 509.91 1160.96 546.36 1108.47 546.36 1108.47 C 546.36 1108.47 557.58 1054.25 575.07 1024.20 C 599.91 981.53 636.17 975.91 666.75 937.15 C 691.00 906.43 719.53 851.96 719.53 851.96 C 719.53 851.96 702.87 815.61 681.57 811.21 C 654.64 805.66 651.40 848.27 624.15 851.96 C 590.17 856.56 580.65 811.76 546.36 811.21 C 501.01 810.49 485.83 848.70 451.91 878.81 C 397.46 927.14 335.23 1024.20 335.23 1024.20 L 345.41 953.82 C 345.41 953.82 300.60 992.10 282.44 1024.20 C 240.61 1098.18 296.93 1158.08 282.44 1241.82 C 271.88 1302.92 217.76 1334.48 236.14 1393.69 C 254.69 1453.46 362.08 1492.78 362.08 1492.78 C 362.08 1492.78 384.40 1505.51 388.01 1519.63 C 394.97 1546.86 343.80 1535.16 326.89 1557.60 C 315.98 1572.09 309.93 1582.13 308.37 1600.20 C 306.08 1626.84 311.75 1650.39 335.23 1663.17 C 353.33 1673.03 388.01 1663.17 388.01 1663.17 C 388.01 1663.17 345.20 1646.80 345.41 1624.28 C 345.59 1605.98 357.05 1593.82 374.12 1587.24 C 396.68 1578.53 421.90 1588.21 431.54 1610.39 C 440.03 1629.94 414.51 1642.09 417.64 1663.17 C 421.13 1686.59 451.91 1713.18 451.91 1713.18 C 451.91 1713.18 465.64 1678.44 485.25 1670.58 C 513.05 1659.42 542.61 1674.15 555.62 1701.14 C 566.73 1724.17 567.85 1752.09 546.36 1765.96 C 525.73 1779.28 485.25 1751.14 485.25 1751.14 C 485.25 1751.14 495.43 1783.56 544.51 1790.04 C 593.59 1796.52 591.74 1784.48 613.04 1775.22 C 634.34 1765.96 651.24 1759.96 666.75 1765.96 C 685.60 1773.26 702.44 1783.72 701.94 1803.93 Z" fill="#000000" fill-rule="nonzero" node-id="120" stroke="none" target-height="1050.794" target-width="561.04193" target-x="217.76" target-y="805.656"></path><path d="M 787.13 1803.93 L 778.80 1806.43 M 778.80 1806.43 C 749.05 1856.45 715.83 1852.08 671.38 1829.86 C 671.38 1829.86 701.45 1823.61 701.94 1803.93 C 702.44 1783.72 685.60 1773.26 666.75 1765.96 C 651.24 1759.96 634.34 1765.96 613.04 1775.22 C 591.74 1784.48 593.59 1796.52 544.51 1790.04 C 495.43 1783.56 485.25 1751.14 485.25 1751.14 C 485.25 1751.14 525.73 1779.28 546.36 1765.96 C 567.85 1752.09 566.73 1724.17 555.62 1701.14 C 542.61 1674.15 513.05 1659.42 485.25 1670.58 C 465.64 1678.44 451.91 1713.18 451.91 1713.18 C 451.91 1713.18 421.13 1686.59 417.64 1663.17 C 414.51 1642.09 440.03 1629.94 431.54 1610.39 C 421.90 1588.21 396.68 1578.53 374.12 1587.24 C 357.05 1593.82 345.59 1605.98 345.41 1624.28 C 345.20 1646.80 388.01 1663.17 388.01 1663.17 C 388.01 1663.17 353.33 1673.03 335.23 1663.17 C 311.75 1650.39 306.08 1626.84 308.37 1600.20 C 309.93 1582.13 315.98 1572.09 326.89 1557.60 C 343.80 1535.16 394.97 1546.86 388.01 1519.63 C 384.40 1505.51 362.08 1492.78 362.08 1492.78 C 362.08 1492.78 254.69 1453.46 236.14 1393.69 C 217.76 1334.48 271.88 1302.92 282.44 1241.82 C 296.93 1158.08 240.61 1098.18 282.44 1024.20 C 300.60 992.10 345.41 953.82 345.41 953.82 L 335.23 1024.20 C 335.23 1024.20 397.46 927.14 451.91 878.81 C 485.83 848.70 501.01 810.49 546.36 811.21 C 580.65 811.76 590.17 856.56 624.15 851.96 C 651.40 848.27 654.64 805.66 681.57 811.21 C 702.87 815.61 719.53 851.96 719.53 851.96 C 719.53 851.96 691.00 906.43 666.75 937.15 C 636.17 975.91 599.91 981.53 575.07 1024.20 C 557.58 1054.25 546.36 1108.47 546.36 1108.47 C 546.36 1108.47 509.91 1160.96 513.03 1205.71 C 515.08 1235.23 519.51 1273.31 519.51 1273.31 L 559.33 1398.32 L 537.10 1392.77 L 666.75 1650.21 L 778.80 1806.43 Z" fill="none" node-id="122" stroke="#000000" stroke-linecap="butt" stroke-width="1.85208" target-height="1050.794" target-width="569.375" target-x="217.76" target-y="805.656"></path><path d="M 792.57 579.74 C 793.01 579.30 793.45 578.87 793.89 578.44 C 836.28 534.38 857.41 512.28 856.59 511.43 C 852.93 507.65 849.50 504.01 846.03 500.22 C 808.25 459.03 778.62 413.40 768.83 369.62 C 764.40 347.88 763.23 328.26 774.84 308.68 C 786.24 288.78 817.65 272.88 854.52 268.76 C 863.05 267.82 870.97 267.06 879.97 266.96 C 880.18 266.38 880.38 265.79 880.59 265.21 C 873.57 259.48 867.10 254.37 859.20 249.42 C 826.24 228.05 778.34 213.16 727.20 232.90 C 675.88 252.08 640.12 305.53 629.29 355.89 C 606.90 459.65 649.68 554.91 707.19 622.33 C 712.52 628.55 717.84 634.39 723.53 640.26 C 724.81 641.58 748.05 621.64 792.57 579.74 Z" fill="#0b52a0" fill-rule="nonzero" node-id="124" stroke="none" target-height="428.42496" target-width="273.68695" target-x="606.9" target-y="213.15701"></path><path d="M 763.91 602.66 C 838.32 576.05 912.73 549.44 987.14 522.84 C 984.88 522.35 982.49 521.14 980.16 519.14 C 929.98 474.71 998.59 236.29 1145.26 313.45 C 1152.83 317.99 1159.37 322.32 1166.50 328.11 C 1166.99 327.72 1167.47 327.34 1167.95 326.95 C 1163.83 318.66 1160.04 311.48 1154.66 303.60 C 1133.45 269.73 1089.48 240.73 1039.46 241.18 C 989.89 240.77 943.42 260.90 904.23 287.78 C 828.38 343.87 758.89 423.23 758.05 556.98 C 758.58 571.77 760.44 587.12 763.91 602.66 Z" fill="#0b52a0" fill-rule="nonzero" node-id="126" stroke="none" target-height="366.368" target-width="409.89703" target-x="758.0529" target-y="236.288"></path><path d="M 1317.76 517.66 C 1213.28 383.69 1135.78 353.19 996.42 390.79 C 1076.40 411.97 1095.16 439.44 1110.32 517.66 C 1152.36 514.05 1189.98 530.50 1237.19 560.25 C 1248.78 534.18 1268.63 529.65 1317.76 517.66 Z" fill="#d22b19" fill-rule="nonzero" node-id="128" stroke="none" target-height="207.06302" target-width="321.33893" target-x="996.4211" target-y="353.192"></path><path d="M 1470.55 1870.60 C 1390.53 1766.35 1351.80 1686.57 1340.91 1545.56 C 1173.92 1891.47 1071.38 1970.40 850.11 1859.49 C 850.11 1859.49 895.48 1967.84 925.12 2039.14 C 943.94 2084.45 963.09 2109.77 984.38 2153.97 C 1008.45 2203.92 1021.42 2279.91 1021.42 2279.91 L 1470.55 1870.60 Z" fill="#d7c9bc" fill-rule="nonzero" node-id="130" stroke="none" target-height="734.34985" target-width="620.44403" target-x="850.106" target-y="1545.56"></path><path d="M 1362.21 1671.51 L 1339.98 1549.27 C 1186.55 1870.51 1091.98 1985.47 839.92 1853.94 L 889.93 1952.10 C 889.93 1952.10 1092.73 2170.64 1164.96 2125.27 C 1213.40 2094.84 1362.21 1671.51 1362.21 1671.51 Z" fill="#d97158" fill-rule="nonzero" node-id="132" stroke="none" target-height="621.3699" target-width="522.29004" target-x="839.9199" target-y="1549.27"></path><path d="M 515.80 1273.31 C 510.68 1254.52 500.07 1209.24 497.28 1189.96 C 488.32 1127.89 505.77 1088.71 537.10 1034.39 C 572.15 973.64 621.86 964.52 669.53 913.08 C 717.32 861.49 719.80 806.64 780.65 771.39 C 837.20 738.64 880.17 744.33 945.49 742.68 C 1005.14 741.19 1042.69 735.45 1097.36 759.35 C 1184.72 797.55 1200.79 868.78 1247.38 951.97 C 1256.55 968.34 1260.04 978.42 1269.60 994.57 C 1286.22 1022.64 1315.74 1040.86 1324.24 1072.36 C 1330.46 1095.40 1319.74 1107.26 1324.24 1130.70 C 1328.56 1153.19 1337.04 1155.21 1339.98 1177.92 C 1344.06 1209.41 1335.35 1233.49 1335.35 1246.45 C 1335.35 1269.90 1328.26 1297.61 1351.10 1302.94 C 1363.48 1305.83 1359.43 1300.16 1353.87 1289.98 C 1339.22 1261.86 1368.98 1221.71 1388.14 1196.45 C 1407.34 1171.13 1424.19 1137.12 1455.74 1140.88 C 1489.24 1144.88 1501.05 1186.92 1509.45 1219.60 C 1521.35 1265.90 1503.60 1312.62 1479.81 1355.72 C 1450.18 1409.44 1419.62 1456.66 1378.88 1456.66 C 1356.35 1456.66 1339.98 1440.92 1339.98 1440.92 L 1339.98 1550.19 C 1322.82 1598.17 1309.29 1621.58 1284.34 1664.74 L 1282.57 1667.80 C 1227.01 1763.93 1210.34 1818.75 1112.18 1879.11 C 1063.08 1909.31 1039.30 1907.74 981.92 1903.96 L 981.60 1903.94 C 892.36 1898.07 840.10 1852.66 770.47 1796.52 C 707.89 1746.07 659.75 1692.82 633.41 1616.87 C 569.52 1432.59 561.18 1439.63 515.80 1273.31 Z" fill="#d7c9bc" fill-rule="nonzero" node-id="134" stroke="none" target-height="1173.8611" target-width="1033.033" target-x="488.31696" target-y="735.44904"></path><path d="M 1110.32 1175.15 C 1018.35 1203.14 1024.20 1248.30 1024.20 1248.30 C 1024.20 1248.30 1095.61 1284.83 1139.96 1271.46 C 1177.97 1259.99 1215.89 1209.41 1215.89 1209.41 C 1215.89 1209.41 1152.92 1162.18 1110.32 1175.15 Z" fill="#e7d3d5" fill-rule="nonzero" node-id="136" stroke="none" target-height="122.6499" target-width="197.54004" target-x="1018.35" target-y="1162.18"></path><path d="M 1026.17 1233.05 C 1026.71 1233.34 1027.25 1233.63 1027.80 1233.93 C 1029.65 1230.78 1031.64 1227.74 1033.78 1224.80 C 1072.62 1167.67 1154.96 1170.54 1202.88 1211.10 C 1205.71 1213.23 1208.40 1215.37 1211.17 1217.67 C 1214.94 1212.78 1218.70 1207.89 1222.47 1203.00 C 1219.29 1200.73 1216.20 1198.64 1212.94 1196.55 C 1157.54 1155.80 1065.81 1161.51 1031.54 1223.30 C 1029.60 1226.47 1027.80 1229.72 1026.17 1233.05 Z" fill="#000000" fill-rule="nonzero" node-id="138" stroke="none" target-height="78.130005" target-width="196.29993" target-x="1026.17" target-y="1155.8"></path><path d="M 700.09 1227.01 C 626.03 1239.04 619.52 1291.83 619.52 1291.83 C 619.52 1291.83 660.19 1345.14 728.79 1329.80 C 767.54 1321.13 804.73 1279.79 804.73 1279.79 C 804.73 1279.79 774.17 1214.97 700.09 1227.01 Z" fill="#e7d3d5" fill-rule="nonzero" node-id="140" stroke="none" target-height="130.17004" target-width="185.20801" target-x="619.522" target-y="1214.97"></path><path d="M 610.84 1287.67 C 616.63 1289.83 622.41 1291.98 628.20 1294.13 C 629.30 1290.79 630.54 1287.65 632.04 1284.49 C 658.24 1226.52 756.45 1213.20 798.08 1269.52 C 800.26 1272.61 802.18 1275.82 803.89 1279.25 C 804.45 1278.99 805.01 1278.74 805.57 1278.48 C 804.08 1274.86 802.35 1271.41 800.33 1268.05 C 761.43 1206.91 655.57 1208.31 616.37 1276.29 C 614.27 1280.00 612.47 1283.71 610.84 1287.67 Z" fill="#000000" fill-rule="nonzero" node-id="142" stroke="none" target-height="87.21997" target-width="194.73096" target-x="610.843" target-y="1206.91"></path><path d="M 761.32 1259.93 C 755.58 1284.31 737.93 1295.12 715.94 1295.12 C 693.95 1295.12 681.67 1285.86 675.19 1263.64 C 668.71 1241.41 669.64 1224.74 715.94 1228.45 C 737.93 1228.45 768.72 1228.45 761.32 1259.93 Z" fill="#000000" fill-rule="nonzero" node-id="144" stroke="none" target-height="70.380005" target-width="100.012024" target-x="668.711" target-y="1224.74"></path><path d="M 1158.48 1192.27 C 1158.48 1214.77 1138.38 1241.35 1115.88 1241.35 C 1093.38 1241.35 1074.21 1222.18 1074.21 1199.68 C 1074.21 1177.17 1093.38 1174.67 1115.88 1174.67 C 1138.38 1174.67 1158.48 1169.76 1158.48 1192.27 Z" fill="#000000" fill-rule="nonzero" node-id="146" stroke="none" target-height="71.589966" target-width="84.27002" target-x="1074.21" target-y="1169.76"></path><path d="M 459.51 1297.73 C 490.07 1274.81 532.66 1385.70 532.66 1385.70 L 548.41 1385.70 L 616.93 1576.46 C 616.93 1576.46 581.75 1597.76 548.41 1562.57 C 515.07 1527.38 498.40 1494.05 478.03 1468.12 C 453.79 1437.26 446.93 1412.84 444.69 1373.66 C 442.72 1339.04 437.28 1314.39 459.51 1297.73 Z" fill="#d97158" fill-rule="nonzero" node-id="148" stroke="none" target-height="322.94995" target-width="179.65201" target-x="437.283" target-y="1274.81"></path><path d="M 1419.62 1182.55 C 1384.43 1217.74 1364.44 1230.18 1371.47 1267.75 C 1375.07 1287.02 1395.34 1291.71 1396.47 1311.27 C 1397.73 1333.07 1371.47 1344.61 1371.47 1361.28 C 1371.47 1367.11 1379.11 1371.07 1384.43 1368.69 C 1419.62 1352.95 1434.86 1349.47 1454.81 1317.76 C 1476.47 1283.34 1473.33 1250.43 1473.33 1211.26 C 1473.33 1201.08 1472.94 1189.57 1461.29 1182.55 C 1447.27 1174.10 1431.20 1170.98 1419.62 1182.55 Z" fill="#d97158" fill-rule="nonzero" node-id="150" stroke="none" target-height="200.08997" target-width="112.03015" target-x="1364.44" target-y="1170.98"></path><path d="M 954.75 1203.85 C 954.75 1118.66 1085.32 1094.58 1085.32 1094.58 C 1085.32 1094.58 1067.78 1119.23 1073.28 1130.70 C 1078.89 1142.39 1103.84 1143.66 1103.84 1143.66 C 1138.54 1144.00 1158.04 1145.98 1184.49 1154.96 C 1189.21 1156.46 1191.82 1157.55 1191.82 1157.55 C 1189.31 1156.63 1186.87 1155.76 1184.49 1154.96 C 1157.08 1146.24 1058.55 1123.87 989.01 1224.23 C 979.96 1237.29 954.75 1219.74 954.75 1203.85 Z" fill="#d97158" fill-rule="nonzero" node-id="152" stroke="none" target-height="142.71008" target-width="237.07092" target-x="954.749" target-y="1094.58"></path><path d="M 814.92 1184.41 C 779.36 1150.37 693.61 1150.14 693.61 1150.14 C 693.61 1150.14 744.76 1157.40 739.91 1177.92 C 733.65 1204.37 704.72 1188.32 670.45 1206.63 C 648.78 1218.22 626.00 1238.12 626.00 1238.12 C 626.00 1238.12 704.00 1183.75 766.76 1217.74 C 788.99 1229.78 802.88 1238.12 821.40 1266.82 C 827.01 1275.52 847.07 1265.56 852.88 1251.08 C 858.70 1236.60 836.56 1205.13 814.92 1184.41 Z" fill="#d97158" fill-rule="nonzero" node-id="154" stroke="none" target-height="125.380005" target-width="232.69397" target-x="626.004" target-y="1150.14"></path><path d="M 932.23 1702.57 C 920.07 1704.09 910.58 1708.79 908.12 1717.82 C 907.32 1720.73 907.32 1720.44 908.12 1723.36 C 910.58 1732.39 920.86 1738.59 933.16 1739.30 C 945.22 1739.99 954.38 1744.57 967.48 1742.07 C 974.07 1740.81 978.50 1741.93 985.10 1740.68 C 993.53 1739.10 997.09 1741.90 1004.58 1738.61 C 1020.35 1731.68 1036.93 1728.16 1035.19 1716.43 C 1034.26 1710.20 1035.19 1710.59 1029.62 1705.34 C 1020.01 1696.29 1006.95 1698.44 991.60 1697.03 C 968.41 1694.90 954.49 1699.80 932.23 1702.57 Z" fill="#d97158" fill-rule="nonzero" node-id="156" stroke="none" target-height="49.66992" target-width="129.60803" target-x="907.322" target-y="1694.9"></path><path d="M 933.74 1471.13 C 910.34 1472.25 889.29 1483.16 874.48 1480.39 C 874.48 1480.39 869.85 1479.46 867.07 1485.02 C 864.29 1490.57 857.46 1490.46 855.96 1499.83 C 854.08 1511.53 861.51 1523.91 868.92 1529.47 C 897.92 1551.22 912.45 1571.14 946.71 1576.70 C 957.68 1578.47 969.94 1542.37 988.38 1532.84 C 992.56 1530.68 992.61 1531.76 996.71 1529.47 C 1008.57 1522.86 1014.31 1510.95 1019.87 1503.54 C 1025.29 1496.31 1024.21 1480.75 1021.72 1478.53 C 1013.38 1471.13 967.53 1469.51 933.74 1471.13 Z" fill="#d97158" fill-rule="nonzero" node-id="158" stroke="none" target-height="108.95996" target-width="171.20807" target-x="854.082" target-y="1469.51"></path><path d="M 893.00 1508.17 C 900.18 1508.08 906.89 1520.21 906.89 1520.21 C 906.89 1520.21 900.86 1517.30 896.70 1516.50 C 891.73 1515.55 885.44 1521.27 883.74 1516.50 C 883.13 1514.80 883.11 1513.57 883.74 1511.87 C 885.08 1508.22 889.10 1508.22 893.00 1508.17 Z" fill="#723019" fill-rule="nonzero" node-id="160" stroke="none" target-height="13.189941" target-width="23.773987" target-x="883.114" target-y="1508.0801"></path><path d="M 970.79 1498.91 C 961.61 1501.23 954.12 1516.50 954.12 1516.50 C 954.12 1516.50 963.91 1504.39 970.79 1507.24 C 973.39 1508.32 973.73 1510.79 976.34 1511.87 C 979.68 1513.25 982.52 1513.77 985.60 1511.87 C 987.57 1510.66 988.79 1509.50 989.31 1507.24 C 990.28 1503.00 985.87 1500.69 981.90 1498.91 C 977.94 1497.13 974.99 1497.84 970.79 1498.91 Z" fill="#723019" fill-rule="nonzero" node-id="162" stroke="none" target-height="19.369995" target-width="36.166992" target-x="954.117" target-y="1497.1299"></path><path d="M 911.45 1632.03 C 880.16 1647.76 829.63 1676.06 829.63 1676.06 C 829.63 1676.06 863.00 1658.46 886.15 1658.53 C 896.55 1658.56 894.48 1655.49 909.45 1654.97 C 918.11 1654.67 922.28 1651.93 930.84 1650.56 C 939.76 1649.13 939.70 1653.41 948.74 1653.60 C 964.70 1653.94 980.47 1646.61 996.16 1643.71 C 1014.85 1640.25 1025.42 1650.01 1048.56 1641.88 C 1067.94 1635.07 1092.02 1625.72 1092.02 1625.72 C 1092.02 1625.72 1061.23 1627.94 1041.50 1627.48 C 1016.79 1626.92 1002.90 1617.40 978.53 1621.45 C 966.20 1623.50 960.25 1628.59 947.94 1630.75 C 933.90 1633.21 924.14 1625.65 911.45 1632.03 Z" fill="#c96555" fill-rule="nonzero" node-id="164" stroke="none" target-height="58.660034" target-width="262.393" target-x="829.627" target-y="1617.4"></path><path d="M 1374.25 1233.49 C 1404.27 1248.41 1426.40 1254.83 1431.66 1278.86" fill="none" node-id="166" stroke="#000000" stroke-linecap="butt" stroke-width="1.85208" target-height="45.369995" target-width="57.409912" target-x="1374.25" target-y="1233.49"></path><path d="M 1403.88 1198.30 C 1418.61 1199.68 1427.12 1201.81 1443.70 1213.11" fill="none" node-id="168" stroke="#000000" stroke-linecap="butt" stroke-width="1.85208" target-height="14.809937" target-width="39.819824" target-x="1403.8801" target-y="1198.3"></path><path d="M 481.73 1336.62 C 494.26 1361.77 501.50 1375.26 521.55 1379.22" fill="none" node-id="170" stroke="#000000" stroke-linecap="butt" stroke-width="1.85208" target-height="42.599976" target-width="39.820007" target-x="481.732" target-y="1336.62"></path><path d="M 535.44 1389.40 C 491.04 1433.64 500.12 1454.62 564.15 1486.64" fill="none" node-id="172" stroke="#000000" stroke-linecap="butt" stroke-width="1.85208" target-height="97.24011" target-width="73.10803" target-x="491.042" target-y="1389.4"></path><path d="M 611.19 1147.37 L 538.03 1374.25 L 489.88 1203.85 L 581.55 755.65 L 1046.43 620.45 L 1141.81 766.76 C 1141.81 766.76 1008.69 694.13 950.12 741.76 C 903.76 779.46 908.45 889.00 908.45 889.00 C 908.45 889.00 815.84 759.35 760.28 801.03 C 700.62 845.77 660.27 1014.02 660.27 1014.02 L 642.29 1017.82 C 648.05 1028.66 645.51 1039.96 639.89 1051.98 C 629.58 1074.07 593.87 1053.17 581.55 1074.21 C 565.98 1100.81 611.19 1147.37 611.19 1147.37 Z" fill="#d97158" fill-rule="nonzero" node-id="174" stroke="none" target-height="753.802" target-width="651.9341" target-x="489.87598" target-y="620.448"></path><path d="M 1177.01 429.55 C 1177.62 429.64 1178.23 429.73 1178.84 429.81 C 1206.46 432.94 1220.29 434.34 1220.39 433.70 C 1220.82 430.82 1221.26 428.04 1221.72 425.35 C 1226.85 395.13 1235.24 368.21 1250.05 352.07 C 1262.75 336.43 1297.21 325.54 1316.33 357.00 C 1318.15 360.40 1319.59 364.24 1320.54 368.46 C 1321.15 368.53 1321.77 368.60 1322.38 368.67 C 1324.24 364.60 1325.59 360.24 1326.28 355.60 C 1335.03 307.92 1264.68 270.48 1216.69 296.59 C 1167.44 319.90 1146.47 368.83 1138.13 409.65 C 1137.38 413.39 1136.71 417.21 1136.13 421.11 C 1136.00 421.98 1149.61 424.90 1177.01 429.55 Z" fill="#d22b19" fill-rule="nonzero" node-id="176" stroke="none" target-height="163.86398" target-width="199.03003" target-x="1136" target-y="270.477"></path><path d="M 1247.38 478.93 C 1248.00 478.93 1248.61 478.93 1249.23 478.93 C 1264.67 477.46 1272.41 476.95 1272.47 476.00 C 1272.58 474.17 1272.80 472.35 1273.11 470.59 C 1279.69 423.24 1386.19 398.21 1433.13 456.46 C 1435.69 459.83 1437.96 463.30 1440.04 467.17 C 1440.63 466.99 1441.21 466.80 1441.80 466.61 C 1441.19 462.16 1440.26 457.88 1438.86 453.53 C 1411.52 374.29 1263.48 348.91 1225.86 461.61 C 1225.11 465.43 1224.63 469.30 1224.41 473.06 C 1224.28 475.00 1231.94 477.42 1247.38 478.93 Z" fill="#d22b19" fill-rule="nonzero" node-id="178" stroke="none" target-height="130.02005" target-width="217.52002" target-x="1224.28" target-y="348.90796"></path><path d="M 588.25 810.26 C 588.11 809.66 587.97 809.06 587.82 808.46 C 582.12 790.83 568.17 782.09 558.31 778.69 C 548.09 775.38 542.83 774.43 540.34 777.24 C 534.29 784.42 532.20 788.09 529.37 792.70 C 526.47 797.61 524.98 800.53 523.03 804.43 C 485.76 889.78 475.32 965.88 471.50 1048.90 C 470.49 1090.07 472.39 1131.57 483.01 1173.80 C 488.59 1194.73 496.08 1216.26 511.28 1235.27 C 525.62 1255.03 554.99 1265.13 575.24 1257.96 C 584.83 1255.34 592.18 1251.42 600.40 1246.39 C 600.18 1245.81 599.97 1245.24 599.75 1244.66 C 590.37 1246.19 582.47 1246.38 574.21 1245.34 C 536.33 1240.10 535.86 1201.99 536.97 1167.56 C 539.10 1132.04 546.74 1095.79 555.40 1059.70 C 573.19 989.10 595.89 911.12 622.22 854.21 C 623.21 852.30 623.95 850.97 624.71 849.72 C 625.04 849.18 625.26 848.85 625.31 848.79 C 625.37 848.70 625.22 848.97 624.38 849.95 C 623.62 850.81 619.40 848.71 611.45 843.49 C 603.82 838.26 591.98 828.36 588.25 810.26 Z" fill="#000000" fill-rule="nonzero" node-id="180" stroke="none" target-height="490.7" target-width="154.87302" target-x="470.494" target-y="774.43"></path><path d="M 989.01 1123.29 C 975.89 1125.22 958.99 1113.73 962.16 1098.29 C 963.97 1089.43 970.82 1079.56 978.83 1076.06 C 1023.28 1056.61 1105.69 1047.35 1180.70 1051.06 C 1216.25 1052.81 1254.79 1090.88 1254.79 1090.88 C 1254.79 1090.88 1212.47 1076.06 1187.19 1076.06 C 1095.51 1076.06 1020.50 1118.66 989.01 1123.29 Z" fill="#000000" fill-rule="nonzero" node-id="182" stroke="none" target-height="77.869995" target-width="295.79706" target-x="958.993" target-y="1047.35"></path><path d="M 790.84 1103.84 C 789.02 1096.12 787.12 1093.07 776.02 1093.65 C 723.24 1096.43 690.83 1100.14 639.89 1108.47 C 616.47 1112.30 550.07 1185.33 550.07 1185.33 C 582.98 1169.78 608.41 1148.29 637.12 1144.59 C 665.82 1140.88 703.79 1144.59 772.32 1138.10 C 780.07 1137.37 778.80 1138.10 786.21 1133.47 C 796.33 1127.15 794.55 1119.59 790.85 1103.86 L 790.84 1103.84 Z" fill="#000000" fill-rule="nonzero" node-id="184" stroke="none" target-height="92.26001" target-width="246.25604" target-x="550.069" target-y="1093.07"></path><path d="M 663.15 573.21 C 663.08 572.60 663.01 571.99 662.94 571.37 C 656.10 521.82 651.58 497.18 650.15 497.36 C 639.33 498.71 629.15 500.43 618.36 502.75 C 510.29 524.07 408.46 609.72 383.27 721.16 C 350.10 831.16 431.09 961.47 529.79 967.26 C 540.51 968.93 550.36 969.46 560.96 969.54 C 561.11 968.94 561.26 968.34 561.41 967.74 C 552.12 962.80 544.11 957.68 535.90 951.87 C 385.34 832.04 525.67 665.26 649.06 651.19 C 655.72 649.92 662.06 648.92 668.91 648.07 C 669.82 647.95 667.64 623.03 663.15 573.21 Z" fill="#d22b19" fill-rule="nonzero" node-id="186" stroke="none" target-height="472.35806" target-width="319.713" target-x="350.102" target-y="497.17996"></path><path d="M 508.04 641.55 C 507.66 641.07 507.28 640.58 506.91 640.09 C 478.97 607.83 464.91 591.75 463.42 592.84 C 460.31 595.10 457.34 597.19 454.18 599.30 C 412.93 626.97 365.40 641.74 317.18 634.81 C 271.30 627.98 220.10 597.58 247.15 531.00 C 250.04 524.08 253.04 517.76 257.15 510.92 C 256.73 510.47 256.30 510.02 255.88 509.57 C 248.75 513.32 242.41 516.97 235.78 521.97 C 206.75 541.54 183.62 587.02 197.64 632.15 C 210.40 676.43 245.44 708.71 283.37 727.59 C 360.65 766.32 456.34 752.76 524.79 707.86 C 530.03 704.50 534.90 701.17 539.87 697.54 C 542.27 695.79 532.09 676.80 508.04 641.55 Z" fill="#d22b19" fill-rule="nonzero" node-id="188" stroke="none" target-height="256.74097" target-width="358.64697" target-x="183.622" target-y="509.57404"></path><path d="M 867.70 1071.43 C 822.33 1079.76 712.13 1048.28 712.13 1048.28 C 712.13 1048.28 788.06 1039.94 822.33 1026.98 C 859.92 1012.75 897.21 988.54 899.19 931.60 C 902.00 850.76 784.36 786.21 784.36 786.21 C 749.68 794.44 735.33 809.38 712.13 840.85 C 712.13 840.85 701.58 822.96 698.24 810.29 C 690.00 779.07 712.13 728.79 712.13 728.79 L 1097.36 636.19 L 1145.51 770.47 L 1023.28 738.05 C 1023.28 738.05 992.72 770.90 993.64 810.29 C 994.57 849.67 1001.21 860.11 1037.17 889.00 C 1003.74 880.80 987.93 875.94 957.53 840.85 C 976.69 878.10 999.20 875.11 999.20 931.60 C 999.20 988.09 952.10 1055.93 867.70 1071.43 Z" fill="#d97158" fill-rule="nonzero" node-id="190" stroke="none" target-height="443.57" target-width="455.505" target-x="690.005" target-y="636.19"></path><path d="M 686.42 562.08 C 686.27 561.48 686.12 560.88 685.97 560.28 C 674.00 559.53 661.55 560.13 649.29 561.53 C 603.61 567.53 548.14 585.08 518.29 645.21 C 489.60 707.61 514.69 773.68 541.36 816.28 C 558.86 844.62 583.10 866.94 599.07 882.14 C 630.51 910.89 644.49 933.31 662.37 980.79 C 664.16 978.61 667.10 980.18 667.11 985.54 C 667.25 990.77 665.13 998.27 661.73 1006.04 C 654.84 1021.76 643.57 1038.75 631.25 1055.43 C 624.22 1064.86 616.80 1074.33 608.92 1083.57 C 609.20 1084.12 609.48 1084.67 609.75 1085.22 C 622.01 1083.92 634.21 1081.62 646.38 1078.47 C 667.93 1072.80 689.31 1064.88 710.16 1050.79 C 729.44 1036.76 756.91 1014.62 756.33 967.60 C 761.45 911.82 734.69 831.28 686.10 791.10 C 665.44 771.70 651.60 760.29 640.27 746.88 C 617.32 719.04 602.48 695.42 601.70 672.09 C 599.88 647.13 624.90 611.12 658.46 583.30 C 667.15 575.91 676.65 568.61 686.42 562.08 Z" fill="#2a801b" fill-rule="nonzero" node-id="192" stroke="none" target-height="525.691" target-width="271.84592" target-x="489.603" target-y="559.529"></path><path d="M 1237.19 555.62 C 1237.19 555.62 1259.70 515.80 1294.61 515.80 C 1331.65 515.80 1419.17 501.91 1430.32 544.51 C 1438.60 576.16 1427.97 563.23 1438.14 613.04 C 1451.38 677.86 1301.68 672.41 1271.46 645.45 C 1255.67 631.37 1237.52 611.19 1222.54 593.53 C 1242.31 621.43 1265.40 661.84 1271.46 704.72 C 1274.89 729.08 1323.98 725.41 1364.99 735.28 C 1396.98 742.97 1389.33 753.80 1416.84 735.28 C 1428.15 727.66 1438.14 726.94 1438.14 726.94 L 1461.06 784.36 C 1461.06 784.36 1449.27 853.85 1438.14 886.22 C 1432.25 903.36 1430.18 910.10 1429.63 912.44 C 1430.08 912.26 1430.32 912.15 1430.32 912.15 C 1430.32 912.15 1429.01 915.06 1429.63 912.44 C 1424.85 914.38 1396.41 925.16 1382.58 912.15 C 1368.26 898.67 1346.46 886.22 1346.46 886.22 C 1346.46 886.22 1293.68 889.00 1246.45 878.81 C 1216.45 872.34 1176.07 797.32 1176.07 797.32 C 1176.07 797.32 1150.97 819.50 1129.77 836.22 C 1109.72 852.02 1082.03 868.20 1079.76 893.63 C 1078.04 912.98 1104.77 926.97 1104.77 926.97 C 1104.77 926.97 1077.39 931.83 1069.58 922.34 C 1056.61 906.60 1051.99 897.37 1048.28 878.81 C 1039.31 833.93 1086.44 817.54 1101.06 774.17 C 1128.84 691.75 1076.99 675.08 1076.99 675.08 C 1076.99 675.08 1058.24 731.73 1027.91 747.32 C 998.96 762.19 977.09 746.22 944.56 747.32 C 891.58 749.11 857.57 781.41 809.36 759.35 C 793.95 752.30 790.10 733.45 773.25 735.28 C 662.12 747.32 716.76 851.96 716.76 851.96 C 716.76 851.96 628.33 844.59 596.37 805.66 C 567.43 770.39 562.81 736.73 570.44 691.75 C 581.70 625.43 626.83 591.05 689.90 567.66 C 711.38 559.70 747.32 555.62 747.32 555.62 C 747.32 555.62 762.29 505.55 798.25 482.47 C 847.25 451.02 958.45 476.91 958.45 476.91 C 958.45 476.91 920.82 442.71 927.89 417.64 C 935.95 389.11 968.09 388.54 997.77 388.02 L 998.27 388.01 C 1040.94 387.26 1068.21 408.94 1091.80 444.50 C 1107.87 468.72 1113.10 515.80 1113.10 515.80 C 1164.04 512.02 1190.70 524.68 1237.19 555.62 Z" fill="#000000" fill-rule="nonzero" node-id="194" stroke="none" target-height="544.56793" target-width="898.25104" target-x="562.809" target-y="387.261"></path><path d="M 1237.19 555.62 C 1237.19 555.62 1259.70 515.80 1294.61 515.80 C 1331.65 515.80 1419.17 501.91 1430.32 544.51 C 1438.60 576.16 1427.97 563.23 1438.14 613.04 C 1451.38 677.86 1301.68 672.41 1271.46 645.45 C 1237.19 614.89 1191.82 555.62 1191.82 555.62 C 1191.82 555.62 1260.34 626.00 1271.46 704.72 C 1274.89 729.08 1323.98 725.41 1364.99 735.28 C 1396.98 742.97 1389.33 753.80 1416.84 735.28 C 1428.15 727.66 1438.14 726.94 1438.14 726.94 L 1461.06 784.36 C 1461.06 784.36 1449.27 853.85 1438.14 886.22 C 1425.65 922.56 1430.32 912.15 1430.32 912.15 C 1430.32 912.15 1397.70 926.38 1382.58 912.15 C 1368.26 898.67 1346.46 886.22 1346.46 886.22 C 1346.46 886.22 1293.68 889.00 1246.45 878.81 C 1216.45 872.34 1176.07 797.32 1176.07 797.32 C 1176.07 797.32 1150.97 819.50 1129.77 836.22 C 1109.72 852.02 1082.03 868.20 1079.76 893.63 C 1078.04 912.98 1104.77 926.97 1104.77 926.97 C 1104.77 926.97 1077.39 931.83 1069.58 922.34 C 1056.61 906.60 1051.99 897.37 1048.28 878.81 C 1039.31 833.93 1086.44 817.54 1101.06 774.17 C 1128.84 691.75 1076.99 675.08 1076.99 675.08 C 1076.99 675.08 1058.24 731.73 1027.91 747.32 C 998.96 762.19 977.09 746.22 944.56 747.32 C 891.58 749.11 857.57 781.41 809.36 759.35 C 793.95 752.30 790.10 733.45 773.25 735.28 C 662.12 747.32 716.76 851.96 716.76 851.96 C 716.76 851.96 628.33 844.59 596.37 805.66 C 567.43 770.39 562.81 736.73 570.44 691.75 C 581.70 625.43 626.83 591.05 689.90 567.66 C 711.38 559.70 747.32 555.62 747.32 555.62 C 747.32 555.62 762.29 505.55 798.25 482.47 C 847.25 451.02 958.45 476.91 958.45 476.91 C 958.45 476.91 920.82 442.71 927.89 417.64 C 935.99 388.94 968.46 388.54 998.27 388.01 C 1040.94 387.26 1068.21 408.94 1091.80 444.50 C 1107.87 468.72 1113.10 515.80 1113.10 515.80 C 1164.04 512.02 1190.70 524.68 1237.19 555.62 Z" fill="none" node-id="196" stroke="#000000" stroke-linecap="butt" stroke-width="1.85208" target-height="544.56793" target-width="898.25104" target-x="562.809" target-y="387.261"></path><path d="M 1549.52 694.57 C 1549.35 695.16 1549.18 695.75 1549.02 696.35 C 1543.50 717.24 1541.00 727.76 1541.36 727.86 C 1545.93 729.12 1550.44 730.20 1554.88 731.12 C 1597.82 740.68 1656.71 734.03 1689.28 690.60 C 1704.83 669.89 1711.91 642.44 1704.38 617.36 C 1697.80 591.32 1669.58 575.41 1648.83 579.59 C 1644.01 580.16 1639.79 581.27 1635.31 582.75 C 1635.36 583.37 1635.42 583.98 1635.47 584.60 C 1640.04 585.28 1644.01 586.33 1648.03 587.74 C 1686.62 602.07 1672.43 642.17 1651.78 656.64 C 1630.46 672.78 1600.61 673.39 1568.92 666.08 C 1565.75 665.35 1562.48 664.52 1559.09 663.59 C 1558.82 663.51 1555.67 673.85 1549.52 694.57 Z" fill="#2a801b" fill-rule="nonzero" node-id="198" stroke="none" target-height="165.26099" target-width="170.91003" target-x="1541" target-y="575.415"></path><path d="M 1649.28 846.40 C 1674.45 889.48 1669.40 905.54 1664.10 926.97 C 1664.10 926.97 1611.67 919.72 1590.01 898.26 C 1571.17 879.59 1587.58 861.74 1565.94 846.40 C 1552.03 836.55 1510.37 826.03 1510.37 826.03 C 1510.37 826.03 1527.04 740.83 1488.15 688.05 C 1450.31 636.70 1382.58 619.52 1382.58 619.52 C 1382.58 619.52 1422.75 581.47 1414.07 550.07 C 1409.95 535.18 1395.24 536.43 1391.84 521.36 C 1384.51 488.88 1412.57 454.82 1441.85 438.94 C 1468.30 424.59 1501.73 420.40 1529.82 432.46 C 1554.74 443.17 1566.86 458.39 1560.38 479.69 C 1553.90 500.99 1537.23 521.36 1537.23 521.36 C 1537.23 521.36 1544.10 461.92 1518.71 458.39 C 1501.87 456.05 1477.63 477.32 1482.59 493.58 C 1492.78 526.92 1464.07 554.70 1492.78 563.96 C 1521.49 573.22 1571.25 657.11 1590.01 725.09 C 1609.54 795.85 1697.65 758.81 1706.70 718.61 C 1706.70 718.61 1703.92 738.05 1703.92 780.65 C 1703.92 823.25 1685.10 856.33 1649.28 846.40 Z" fill="#d22b19" fill-rule="nonzero" node-id="200" stroke="none" target-height="506.57196" target-width="324.12" target-x="1382.58" target-y="420.39502"></path><path d="M 1418.70 1698.36 L 1383.51 1722.44 L 1363.13 1662.24 C 1363.13 1662.24 1345.45 1587.19 1341.83 1538.15 C 1339.07 1500.65 1341.83 1441.85 1341.83 1441.85 C 1341.83 1441.85 1365.40 1459.07 1382.58 1458.52 C 1407.31 1457.71 1415.21 1437.23 1432.59 1419.62 C 1462.69 1389.12 1474.79 1366.16 1490.00 1326.09 C 1497.07 1307.47 1501.12 1296.74 1503.89 1277.01 C 1507.77 1249.40 1506.89 1232.77 1500.19 1205.71 C 1495.12 1185.24 1496.49 1168.61 1479.81 1155.70 C 1470.31 1148.34 1463.13 1144.50 1451.11 1144.59 C 1437.04 1144.69 1429.05 1150.80 1418.70 1160.33 C 1408.20 1169.99 1408.56 1180.27 1400.18 1191.82 C 1396.09 1197.44 1400.18 1191.82 1385.36 1207.56 C 1370.54 1223.30 1361.52 1243.23 1358.50 1274.23 C 1355.48 1305.23 1378.88 1292.75 1378.88 1292.75 C 1378.88 1292.75 1370.80 1303.58 1363.13 1305.72 C 1349.21 1309.60 1337.94 1297.84 1332.57 1284.42 C 1319.61 1252.01 1347.52 1220.30 1338.13 1180.70 C 1332.94 1158.80 1325.85 1150.16 1322.39 1127.92 C 1318.57 1103.41 1334.27 1079.61 1318.68 1060.32 C 1299.24 1036.24 1268.68 997.73 1268.68 997.73 C 1268.68 997.73 1247.97 1009.76 1234.41 1013.09 C 1217.38 1017.27 1208.38 1008.87 1190.89 1007.53 C 1171.42 1006.04 1161.26 1013.09 1141.81 1007.53 C 1125.81 1002.96 1119.22 993.71 1114.03 977.90 C 1110.08 965.87 1110.32 945.49 1110.32 945.49 C 1110.32 945.49 1115.99 972.10 1129.77 977.90 C 1147.37 985.31 1162.51 973.05 1178.85 981.60 C 1188.60 986.70 1188.11 993.10 1200.15 997.73 C 1212.19 1002.36 1242.17 981.89 1250.16 954.21 L 1275.16 959.38 L 1275.16 929.75 C 1275.16 929.75 1369.62 905.67 1418.70 945.49 C 1470.04 987.15 1479.81 1050.13 1479.81 1050.13 C 1520.61 1068.61 1554.52 1057.68 1590.01 1035.31 C 1590.01 1035.31 1640.85 1073.56 1652.06 1117.73 C 1660.96 1152.83 1625.20 1201.08 1640.95 1228.86 C 1649.64 1244.20 1664.07 1248.93 1681.69 1248.30 C 1695.45 1247.82 1703.19 1242.81 1714.10 1234.41 C 1733.85 1219.23 1740.03 1173.29 1740.03 1173.29 C 1740.03 1173.29 1762.41 1231.40 1720.59 1270.53 C 1691.88 1297.38 1640.95 1291.83 1640.95 1291.83 C 1640.95 1291.83 1631.02 1317.11 1622.43 1329.80 C 1610.33 1347.65 1586.39 1340.46 1580.75 1361.28 C 1575.29 1381.45 1580.04 1400.30 1598.35 1410.36 C 1617.00 1420.61 1634.76 1413.50 1652.06 1401.10 C 1674.56 1384.98 1676.14 1334.43 1676.14 1334.43 C 1676.14 1334.43 1691.36 1382.24 1681.69 1410.36 C 1669.18 1446.75 1638.21 1463.60 1600.20 1469.63 C 1575.47 1473.55 1545.02 1450.67 1542.79 1469.63 C 1540.93 1485.37 1557.97 1495.44 1577.05 1499.26 C 1590.55 1501.97 1611.31 1490.93 1611.31 1490.93 C 1611.31 1490.93 1597.05 1530.26 1577.05 1545.56 C 1550.80 1565.65 1493.71 1560.38 1493.71 1560.38 L 1491.85 1574.27 C 1491.85 1574.27 1530.65 1601.42 1528.89 1626.13 C 1527.57 1644.75 1503.89 1666.87 1503.89 1666.87 C 1503.89 1666.87 1515.45 1618.23 1477.96 1624.28 C 1449.26 1628.91 1461.97 1669.65 1461.97 1669.65 C 1461.97 1669.65 1423.70 1649.90 1410.11 1665.02 C 1403.91 1671.92 1404.08 1681.12 1406.66 1690.03 C 1408.86 1697.65 1418.70 1698.36 1418.70 1698.36 Z" fill="#000000" fill-rule="nonzero" node-id="202" stroke="#000000" stroke-linecap="butt" stroke-width="1.85208" target-height="816.77094" target-width="652.3301" target-x="1110.08" target-y="905.669"></path><path d="M 1738.18 1101.99 C 1726.04 1151.96 1645.45 1192.43 1637.82 1196.17 C 1649.02 1118.15 1646.49 1078.24 1581.68 1041.80 C 1581.68 1041.80 1596.54 1016.77 1603.17 1001.98 C 1613.96 977.88 1603.17 960.30 1603.17 934.38 C 1603.17 923.74 1595.57 930.67 1590.01 934.38 C 1584.46 938.08 1559.45 965.70 1540.01 962.16 C 1506.05 955.98 1476.16 911.40 1461.29 884.37 C 1456.24 875.18 1462.68 867.91 1461.29 857.51 C 1458.49 836.47 1438.01 828.64 1439.99 807.51 C 1441.46 791.89 1457.59 771.39 1457.59 771.39 C 1446.14 780.87 1440.98 781.43 1433.51 776.02 C 1438.75 758.85 1445.09 750.96 1439.99 729.72 C 1439.99 729.72 1430.73 771.39 1358.50 754.72 C 1314.61 744.60 1271.46 736.20 1245.53 697.31 C 1230.92 675.39 1238.51 649.93 1229.78 625.08 C 1217.96 591.38 1189.04 549.14 1189.04 549.14 C 1189.04 549.14 1231.64 571.37 1267.75 603.78 C 1302.74 635.18 1358.21 606.00 1402.95 620.45 C 1452.03 636.29 1471.56 652.68 1497.41 697.31 C 1521.13 738.26 1511.30 782.50 1527.04 814.92 C 1535.34 832.01 1549.40 822.49 1567.79 844.55 C 1581.68 861.22 1578.10 877.69 1596.28 893.63 C 1616.02 910.93 1657.61 927.89 1660.39 913.08 C 1663.17 898.26 1664.10 876.96 1648.35 844.55 C 1648.35 844.55 1663.55 840.08 1677.06 830.66 C 1698.85 815.48 1714.10 782.50 1714.10 782.50 C 1714.10 782.50 1797.35 854.52 1782.63 915.86 C 1771.52 962.16 1712.25 983.46 1712.25 983.46 C 1712.25 983.46 1748.91 1057.84 1738.18 1101.99 Z" fill="#2a801b" fill-rule="nonzero" node-id="204" stroke="none" target-height="647.02704" target-width="608.30994" target-x="1189.04" target-y="549.143"></path><path d="M 1637.24 1196.45 C 1637.24 1196.45 1725.43 1154.45 1738.18 1101.99 C 1748.91 1057.84 1712.25 983.46 1712.25 983.46 C 1712.25 983.46 1771.52 962.16 1782.63 915.86 C 1797.35 854.52 1714.10 782.50 1714.10 782.50 C 1714.10 782.50 1698.85 815.48 1677.06 830.66 C 1663.55 840.08 1648.35 844.55 1648.35 844.55 C 1664.10 876.96 1663.17 898.26 1660.39 913.08 C 1657.61 927.89 1616.02 910.93 1596.28 893.63 C 1578.10 877.69 1581.68 861.22 1567.79 844.55 C 1549.40 822.49 1535.34 832.01 1527.04 814.92 C 1511.30 782.50 1521.13 738.26 1497.41 697.31 C 1471.56 652.68 1452.03 636.29 1402.95 620.45 C 1358.21 606.00 1302.74 635.18 1267.75 603.78 C 1231.64 571.37 1189.04 549.14 1189.04 549.14 C 1189.04 549.14 1217.96 591.38 1229.78 625.08 C 1238.51 649.93 1230.92 675.39 1245.53 697.31 C 1271.46 736.20 1314.61 744.60 1358.50 754.72 C 1430.73 771.39 1439.99 729.72 1439.99 729.72 C 1445.09 750.96 1438.75 758.85 1433.51 776.02 C 1440.98 781.43 1446.14 780.87 1457.59 771.39 C 1457.59 771.39 1441.46 791.89 1439.99 807.51 C 1438.01 828.64 1458.49 836.47 1461.29 857.51 C 1462.68 867.91 1456.24 875.18 1461.29 884.37 C 1476.16 911.40 1506.05 955.98 1540.01 962.16 C 1559.45 965.70 1584.46 938.08 1590.01 934.38 C 1595.57 930.67 1603.17 923.74 1603.17 934.38 C 1603.17 960.30 1613.96 977.88 1603.17 1001.98 C 1596.54 1016.77 1581.68 1041.80 1581.68 1041.80 C 1647.58 1078.85 1649.09 1119.50 1637.24 1200.15" fill="none" node-id="206" stroke="#2a801b" stroke-linecap="butt" stroke-width="1.85208" target-height="651.007" target-width="608.30994" target-x="1189.04" target-y="549.143"></path><path d="M 1177.92 797.32 L 1126.99 841.77 C 1150.30 928.47 1197.89 938.56 1276.09 964.01 L 1279.79 929.75 C 1279.79 929.75 1324.95 920.62 1353.87 923.26 C 1379.90 925.64 1418.70 944.56 1418.70 944.56 L 1418.70 908.45 C 1418.70 908.45 1394.77 902.04 1381.65 893.63 C 1362.89 881.61 1343.69 851.03 1343.69 851.03 C 1343.69 851.03 1297.38 866.77 1250.16 851.03 C 1202.93 835.29 1206.13 818.30 1177.92 797.32 Z" fill="#2a801b" fill-rule="nonzero" node-id="208" stroke="#2a801b" stroke-linecap="butt" stroke-width="1.85208" target-height="166.68695" target-width="291.70996" target-x="1126.99" target-y="797.322"></path><path d="M 1440.92 801.95 L 1399.25 830.66 C 1424.60 869.98 1423.66 894.15 1417.77 945.49 C 1455.74 976.05 1464.68 999.89 1479.81 1048.28 C 1545.25 1072.94 1582.77 1073.85 1605.76 990.87 C 1611.26 971.00 1600.20 917.71 1600.20 917.71 C 1600.20 917.71 1582.21 952.39 1553.90 952.90 C 1511.41 953.66 1476.21 923.42 1468.70 881.59 C 1462.22 845.48 1440.92 801.95 1440.92 801.95 Z" fill="#d22b19" fill-rule="nonzero" node-id="210" stroke="#d22b19" stroke-linecap="butt" stroke-width="1.85208" target-height="271.898" target-width="212.01001" target-x="1399.25" target-y="801.95197"></path><path d="M 1174.82 528.06 C 1174.42 528.53 1174.02 529.01 1173.63 529.48 C 1176.24 534.34 1178.89 539.43 1181.36 544.37 C 1206.34 594.96 1227.16 643.95 1227.97 681.87 C 1228.02 683.56 1228.10 685.25 1228.22 686.92 C 1229.41 714.32 1246.62 745.19 1271.02 758.83 C 1295.11 773.00 1320.68 773.90 1343.04 768.79 C 1348.97 767.37 1354.79 765.53 1360.34 763.06 C 1360.35 762.44 1360.36 761.82 1360.37 761.21 C 1355.26 758.34 1350.40 755.20 1345.83 752.05 C 1328.54 740.17 1314.76 727.07 1307.77 715.22 C 1300.79 703.18 1299.60 694.57 1298.42 681.80 C 1298.36 681.03 1298.31 680.23 1298.28 679.41 C 1292.89 605.96 1242.10 560.76 1190.63 534.85 C 1185.46 532.37 1180.11 529.97 1174.82 528.06 Z" fill="#053518" fill-rule="nonzero" node-id="212" stroke="none" target-height="245.83899" target-width="186.73999" target-x="1173.63" target-y="528.06"></path><path d="M 972.88 569.35 C 972.52 568.84 972.17 568.34 971.81 567.83 C 966.26 570.61 961.26 573.35 956.10 576.66 C 849.57 632.41 910.19 851.48 850.74 794.18 C 846.74 793.92 842.95 793.43 838.22 792.87 C 841.21 831.03 844.19 869.19 847.18 907.35 C 855.00 905.77 861.66 904.05 869.60 901.72 C 886.20 896.57 905.88 889.22 924.38 873.79 C 943.32 858.72 956.35 832.70 958.54 812.59 C 962.86 771.90 951.96 746.97 946.13 721.50 C 932.54 672.76 926.29 623.69 961.08 582.27 C 964.77 577.75 968.47 573.62 972.88 569.35 Z" fill="#2a801b" fill-rule="nonzero" node-id="214" stroke="none" target-height="339.513" target-width="134.65802" target-x="838.221" target-y="567.833"></path><path d="M 912.90 571.86 C 913.02 571.25 913.14 570.64 913.25 570.04 C 902.20 565.02 888.26 567.51 876.74 572.16 C 792.32 617.10 731.63 723.78 780.67 838.95 C 795.41 870.19 806.11 902.12 805.66 923.39 C 805.41 933.67 804.24 939.54 801.06 946.57 C 797.88 953.55 790.37 962.40 778.83 970.84 C 755.59 987.90 721.24 1002.42 685.19 1015.47 C 674.39 1019.33 663.25 1023.13 652.02 1026.57 C 651.96 1027.18 651.90 1027.79 651.84 1028.41 C 662.49 1033.75 673.80 1038.19 685.32 1041.97 C 724.13 1054.25 766.15 1060.60 812.33 1048.32 C 857.62 1040.24 913.13 982.30 909.37 924.54 C 908.64 868.01 886.68 828.12 863.98 791.89 C 831.66 749.27 837.63 650.39 886.52 587.01 C 893.39 579.56 901.72 572.71 912.90 571.86 Z" fill="#000000" fill-rule="nonzero" node-id="216" stroke="none" target-height="495.57697" target-width="261.409" target-x="651.842" target-y="565.023"></path><path d="M 528.77 2704.97 C 661.35 2519.14 745.82 2421.44 918.63 2261.39 C 782.94 2420.56 740.44 2518.91 703.79 2704.97 L 528.77 2704.97 Z" fill="#0b52a0" fill-rule="nonzero" node-id="218" stroke="none" target-height="443.58008" target-width="389.864" target-x="528.77" target-y="2261.39"></path><path d="M 1625.20 2266.95 C 1819.44 2266.95 2007.66 2460.73 2007.66 2741.08 C 2007.66 3021.44 1819.44 3215.22 1625.20 3215.22 C 1430.97 3215.22 1242.75 3021.44 1242.75 2741.08 C 1242.75 2460.73 1430.97 2266.95 1625.20 2266.95 Z" fill="none" node-id="220" stroke="#2b1c5d" stroke-linecap="butt" stroke-width="222.25" target-height="948.27" target-width="764.9099" target-x="1242.75" target-y="2266.95"></path><path d="M 699.16 2665.15 C 755.12 2499.27 805.73 2407.48 926.04 2245.65 C 845.42 2414.09 822.30 2505.59 808.43 2665.15 L 699.16 2665.15 Z" fill="#e1ab01" fill-rule="nonzero" node-id="222" stroke="none" target-height="419.5" target-width="226.88007" target-x="699.162" target-y="2245.65"></path><path d="M 1008.46 2444.75 L 886.22 2460.49 L 943.64 2552.17 L 1008.46 2444.75 Z" fill="#d22b19" fill-rule="nonzero" node-id="224" stroke="none" target-height="107.41992" target-width="122.2381" target-x="886.2219" target-y="2444.75"></path><path d="M 1014.94 2239.17 L 989.01 2155.83 C 989.01 2155.83 940.48 2212.02 918.63 2250.28 C 884.93 2309.32 861.22 2359.88 861.22 2401.23 C 861.22 2413.26 871.62 2450.94 892.70 2464.20 C 915.05 2478.25 928.94 2475.29 954.75 2469.75 C 978.20 2464.72 1011.24 2445.68 1011.24 2445.68 C 1011.24 2445.68 972.94 2388.11 959.38 2346.59 C 946.86 2308.27 945.49 2250.28 945.49 2250.28 C 945.49 2250.28 963.06 2272.64 976.97 2272.51 C 993.35 2272.35 1014.94 2239.17 1014.94 2239.17 Z" fill="#000000" fill-rule="nonzero" node-id="226" stroke="none" target-height="322.41992" target-width="153.72101" target-x="861.219" target-y="2155.83"></path><path d="M 975.12 2267.88 L 944.56 2249.35 C 944.56 2249.35 939.47 2312.80 951.97 2350.29 C 965.80 2391.78 1007.53 2443.82 1007.53 2443.82 C 1007.53 2443.82 989.18 2377.59 981.61 2333.62 C 977.22 2308.20 975.12 2267.88 975.12 2267.88 Z" fill="#064f39" fill-rule="nonzero" node-id="228" stroke="none" target-height="194.46997" target-width="68.055176" target-x="939.4749" target-y="2249.35"></path><path d="M 1201.08 2071.56 C 1117.73 2173.42 1078.17 2212.67 969.57 2263.25 L 969.57 2340.11 L 1008.46 2445.68 C 1008.46 2445.68 1081.55 2419.94 1117.73 2382.71 C 1181.63 2316.96 1200.15 2314.18 1304.79 2181.75 C 1409.44 2049.33 1429.01 1993.36 1600.20 1907.19 L 1520.56 1816.89 C 1520.56 1816.89 1284.42 1969.69 1201.08 2071.56 Z" fill="#2a801b" fill-rule="nonzero" node-id="230" stroke="none" target-height="628.7898" target-width="630.63385" target-x="969.566" target-y="1816.8901"></path><path d="M 827.88 2540.13 C 998.62 2604.66 1082.58 2494.94 1235.34 2325.29" fill="none" node-id="232" stroke="#000000" stroke-linecap="butt" stroke-width="1.85208" target-height="279.36987" target-width="407.45898" target-x="827.881" target-y="2325.29"></path><path d="M 1727.07 2013.21 C 1727.07 2013.21 1648.70 2061.31 1642.80 2111.38 C 1621.50 2291.95 1642.80 2662.37 1642.80 2662.37" fill="none" node-id="234" stroke="#000000" stroke-linecap="butt" stroke-width="1.85208" target-height="649.1603" target-width="105.5697" target-x="1621.5001" target-y="2013.2098"></path><path d="M 1748.37 425.98 L 1853.94 425.98 L 1853.94 535.25 L 1748.37 535.25 Z" fill="#e1ab01" fill-rule="nonzero" node-id="236" stroke="none" target-height="109.27301" target-width="105.568726" target-x="1748.3701" target-y="425.979"></path><path d="M 70.38 2066.92 L 377.83 2066.92 L 377.83 2466.97 L 70.38 2466.97 Z" fill="#d22b19" fill-rule="nonzero" node-id="238" stroke="none" target-height="400.05005" target-width="307.446" target-x="70.3794" target-y="2066.92"></path><path d="M 1870.60 1479.81 L 1963.20 1479.81 L 1963.20 1589.08 L 1870.60 1589.08 Z" fill="#0b52a0" fill-rule="nonzero" node-id="240" stroke="none" target-height="109.27295" target-width="92.60425" target-x="1870.6" target-y="1479.81"></path><path d="M 1859.49 689.90 C 1859.49 698.01 1856.27 705.78 1850.54 711.51 C 1844.81 717.24 1837.03 720.46 1828.93 720.46 C 1820.83 720.46 1813.05 717.24 1807.32 711.51 C 1801.59 705.78 1798.37 698.01 1798.37 689.90 C 1798.37 681.80 1801.59 674.02 1807.32 668.29 C 1813.05 662.56 1820.83 659.34 1828.93 659.34 C 1837.03 659.34 1844.81 662.56 1850.54 668.29 C 1856.27 674.02 1859.49 681.80 1859.49 689.90 Z" fill="#d22b19" fill-rule="nonzero" node-id="242" stroke="none" target-height="61.118713" target-width="61.118896" target-x="1798.3706" target-y="659.3416"></path></g></svg>